<?xml version="1.0" encoding="UTF-8" standalone="no"?>
<svg
   version="1.0"
   width="2464.2454pt"
   height="1569.6326pt"
   viewBox="0 0 2464.2454 1569.6326"
   preserveAspectRatio="xMidYMid"
   id="svg11"
   sodipodi:docname="CentreBC_Logo.svg"
   xmlns:inkscape="http://www.inkscape.org/namespaces/inkscape"
   xmlns:sodipodi="http://sodipodi.sourceforge.net/DTD/sodipodi-0.dtd"
   xmlns="http://www.w3.org/2000/svg"
   xmlns:svg="http://www.w3.org/2000/svg">
  <defs
     id="defs11" />
  <sodipodi:namedview
     id="namedview11"
     pagecolor="#ffffff"
     bordercolor="#cccccc"
     borderopacity="1"
     inkscape:showpageshadow="0"
     inkscape:pageopacity="1"
     inkscape:pagecheckerboard="0"
     inkscape:deskcolor="#d1d1d1"
     inkscape:document-units="pt">
    <inkscape:page
       x="0"
       y="0"
       width="2464.2454"
       height="1569.6326"
       id="page2"
       margin="0"
       bleed="0" />
  </sodipodi:namedview>
  <g
     transform="matrix(0.1,0,0,-0.1,-17.054596,1691.8013)"
     fill="#000000"
     stroke="none"
     id="g11">
    <path
       d="m 13153,16788 c -138,-154 -492,-546 -874,-969 -146,-162 -335,-370 -419,-464 -84,-93 -212,-235 -285,-315 -115,-127 -241,-266 -378,-420 -23,-25 -64,-70 -91,-100 -51,-55 -82,-89 -362,-401 -82,-91 -269,-298 -415,-460 -146,-162 -378,-418 -514,-569 -280,-311 -344,-380 -351,-380 -3,0 -170,78 -372,174 -202,96 -416,197 -477,226 -60,29 -128,61 -149,71 -22,10 -43,19 -47,19 -8,0 -319,-341 -891,-977 -78,-87 -160,-178 -183,-203 -22,-25 -128,-142 -235,-260 -201,-224 -246,-273 -501,-556 -85,-93 -275,-305 -424,-469 -148,-165 -358,-396 -465,-515 -107,-119 -316,-350 -465,-515 -148,-165 -377,-418 -509,-563 -131,-145 -234,-267 -230,-272 13,-12 305,-48 489,-60 1096,-70 2368,186 3955,798 352,136 1005,408 1345,562 675,304 877,398 2140,992 558,263 1101,514 1315,608 341,150 439,192 620,270 729,312 1446,583 2025,765 83,26 153,51 158,54 4,4 -8,25 -26,47 -18,21 -71,86 -118,144 -47,58 -202,249 -344,425 -586,723 -684,845 -766,945 -134,165 -335,413 -450,555 -58,72 -211,261 -340,420 -129,160 -275,340 -324,400 -300,370 -392,484 -490,605 -60,74 -179,221 -263,325 -85,105 -158,191 -162,193 -4,1 -61,-57 -127,-130 z"
       id="path1"
       style="fill:#354a9e;fill-opacity:1" />
    <path
       d="m 19175,12389 c -553,-27 -1123,-117 -1793,-283 -206,-51 -313,-80 -397,-106 -33,-10 -109,-33 -170,-50 -99,-29 -301,-93 -475,-151 -182,-61 -674,-240 -856,-312 -49,-19 -120,-47 -159,-62 -38,-15 -96,-38 -127,-51 -32,-13 -86,-36 -120,-50 -71,-29 -99,-40 -288,-120 -74,-31 -169,-71 -210,-89 -91,-40 -324,-142 -365,-160 -16,-7 -70,-31 -120,-53 -291,-128 -1058,-482 -1374,-633 -79,-38 -145,-69 -147,-69 -4,0 -207,-95 -512,-241 -68,-33 -125,-59 -127,-59 -2,0 -65,-30 -142,-66 -76,-37 -219,-104 -318,-149 -99,-46 -225,-104 -280,-130 -55,-26 -158,-73 -230,-105 -71,-32 -200,-89 -285,-127 -302,-136 -766,-337 -850,-368 -19,-8 -73,-30 -120,-50 -146,-62 -653,-260 -820,-320 -524,-188 -895,-306 -1370,-435 -509,-139 -1150,-255 -1629,-295 -1004,-84 -1917,27 -2726,333 -71,27 -139,53 -150,57 -40,15 214,-129 345,-195 122,-61 384,-181 485,-223 572,-233 1229,-385 1920,-444 292,-25 976,-25 1290,0 472,38 960,106 1415,197 409,83 930,206 1285,305 439,122 598,167 735,210 41,13 120,37 175,54 181,54 588,181 665,207 75,24 133,43 645,209 149,48 329,106 400,130 72,24 245,80 385,125 140,44 287,91 325,104 92,31 396,127 510,161 50,15 124,38 165,50 41,13 91,28 110,34 19,5 82,24 140,41 105,32 133,40 415,119 83,23 188,53 235,67 102,29 455,121 490,127 14,3 70,16 125,30 89,22 185,44 405,94 337,76 890,169 1275,214 347,40 539,51 1000,54 468,4 721,-9 1035,-50 848,-111 1662,-383 2357,-788 l 112,-65 5,37 c 3,20 28,221 56,446 63,515 241,1971 276,2248 14,115 24,210 22,211 -2,2 -55,24 -118,49 -759,301 -1609,431 -2525,386 z"
       id="path2"
       style="fill:#0872ba;fill-opacity:1" />
    <path
       d="m 17490,8940 c -186,-9 -566,-44 -705,-65 -55,-9 -136,-20 -180,-26 -406,-51 -1229,-230 -1840,-400 -669,-187 -1099,-320 -2585,-804 -691,-225 -918,-297 -1325,-421 -170,-52 -314,-96 -320,-98 -5,-3 2404,-5 5355,-5 5246,-1 5364,-1 5334,18 -17,10 -57,52 -90,92 -32,41 -145,179 -249,308 -105,129 -221,273 -259,320 -74,92 -185,228 -419,517 -81,100 -153,186 -160,192 -17,15 -407,144 -542,180 -613,165 -1267,227 -2015,192 z"
       id="path3"
       style="fill:#354a9e;fill-opacity:1" />
    <path
       d="M 1870,4684 C 1569,4658 1345,4601 1114,4490 471,4181 106,3508 180,2769 252,2059 704,1515 1397,1305 c 177,-54 328,-76 552,-82 286,-8 492,20 730,99 257,85 444,200 636,391 l 130,129 -50,45 c -290,265 -546,493 -552,493 -4,0 -43,-36 -88,-80 -144,-144 -259,-215 -430,-266 -121,-36 -335,-45 -470,-19 -277,52 -502,219 -625,463 -136,269 -142,643 -16,918 119,257 329,423 621,490 125,29 340,25 466,-8 172,-46 344,-151 478,-292 63,-67 64,-67 85,-48 11,10 122,111 246,223 124,112 250,225 279,251 l 53,48 -50,57 c -77,89 -138,145 -240,221 -230,172 -510,283 -818,326 -111,15 -382,27 -464,20 z"
       id="path4"
       style="fill:#ed2a29;fill-opacity:1" />
    <path
       d="m 23296,4649 c -610,-83 -1089,-406 -1339,-906 -234,-466 -243,-1063 -23,-1536 299,-642 978,-1014 1748,-958 424,31 775,176 1041,431 l 90,85 -157,149 -157,149 -42,-40 c -226,-214 -469,-325 -776,-354 -406,-38 -809,106 -1080,386 -234,242 -352,545 -352,902 0,340 122,653 350,896 160,171 444,319 706,367 99,18 311,24 422,11 266,-31 517,-146 712,-326 l 61,-57 156,148 156,149 -86,82 c -214,204 -483,338 -805,400 -115,22 -169,26 -346,29 -115,1 -241,-2 -279,-7 z"
       id="path5"
       style="fill:#344c9e;fill-opacity:1" />
    <path
       d="M 18330,2955 V 1290 h 898 c 716,0 921,3 1013,14 515,64 821,279 921,646 32,119 31,365 -1,485 -74,274 -252,463 -529,560 l -63,23 38,22 c 83,49 175,125 222,183 123,155 181,328 181,537 -1,484 -339,783 -962,850 -59,6 -418,10 -908,10 h -810 z m 1591,1275 c 290,-28 487,-133 569,-304 91,-192 49,-442 -96,-575 -70,-64 -192,-124 -310,-153 -85,-20 -115,-22 -686,-25 l -598,-4 v 535 536 h 508 c 279,0 555,-5 613,-10 z m 254,-1463 c 223,-40 373,-122 455,-249 48,-73 71,-148 77,-254 18,-267 -109,-452 -367,-538 -155,-51 -233,-56 -914,-56 h -626 v 561 561 l 643,-5 c 528,-4 658,-7 732,-20 z"
       id="path6"
       style="fill:#344c9e;fill-opacity:1" />
    <path
       d="m 10580,4105 v -335 h -190 -189 v -335 -335 h 189 189 l 4,-532 c 3,-492 5,-540 24,-623 27,-119 73,-233 129,-316 52,-79 168,-190 248,-238 253,-152 703,-192 1049,-95 103,29 217,80 217,97 0,12 -207,603 -216,618 -2,4 -23,-3 -47,-16 -23,-13 -72,-31 -107,-39 -136,-33 -244,-13 -314,58 -80,80 -80,78 -84,614 l -3,472 h 295 296 v 335 335 h -295 -295 v 335 335 h -450 -450 z"
       id="path7"
       style="fill:#ed2a29;fill-opacity:1" />
    <path
       d="m 4990,3903 c -293,-22 -578,-124 -791,-282 -88,-67 -216,-200 -280,-294 -100,-146 -160,-289 -201,-482 -28,-133 -30,-376 -3,-515 76,-402 316,-720 683,-907 270,-137 619,-200 963,-174 388,29 667,139 888,350 l 63,61 -237,245 c -131,135 -240,245 -244,245 -3,-1 -35,-23 -71,-51 -81,-62 -184,-113 -286,-141 -108,-29 -345,-31 -449,-4 -178,47 -314,153 -385,300 -22,46 -40,86 -40,89 0,4 422,7 939,7 h 939 l 5,33 c 3,17 4,120 3,227 -4,208 -18,299 -69,445 -108,306 -321,550 -610,696 -228,116 -536,173 -817,152 z m 237,-648 c 202,-38 357,-180 408,-373 7,-28 10,-53 7,-56 -3,-3 -241,-6 -530,-6 h -524 l 7,38 c 30,161 165,318 322,374 109,38 197,45 310,23 z"
       id="path8"
       style="fill:#ed2a29;fill-opacity:1" />
    <path
       d="m 8575,3900 c -232,-27 -440,-113 -606,-253 l -69,-58 v 141 140 H 7470 7040 V 2580 1290 h 449 450 l 3,693 c 4,671 4,694 25,768 60,213 185,341 370,379 94,20 237,9 309,-24 109,-50 184,-147 221,-288 14,-55 17,-157 20,-796 l 5,-732 h 449 449 v 774 c 0,466 -4,815 -10,877 -54,531 -337,859 -814,944 -105,19 -292,26 -391,15 z"
       id="path9"
       style="fill:#ed2a29;fill-opacity:1" />
    <path
       d="m 14345,3904 c -304,-27 -519,-112 -682,-270 l -73,-71 v 149 148 h -430 -430 V 2575 1290 h 450 449 l 3,668 c 4,638 5,670 24,737 63,214 185,335 394,392 51,14 102,18 238,17 h 172 l -2,400 -3,401 -35,1 c -19,1 -53,-1 -75,-2 z"
       id="path10"
       style="fill:#ed2a29;fill-opacity:1" />
    <path
       d="m 16010,3900 c -553,-58 -999,-381 -1169,-846 -59,-162 -76,-269 -76,-479 1,-170 4,-202 27,-303 117,-492 495,-854 1023,-977 163,-38 269,-49 465,-49 320,0 548,49 773,166 93,49 211,134 277,202 l 44,46 -65,68 c -35,37 -121,126 -190,197 -69,72 -145,151 -169,178 -23,26 -46,47 -51,47 -4,0 -38,-23 -75,-50 -85,-65 -186,-116 -283,-142 -103,-28 -342,-31 -446,-5 -176,44 -316,151 -388,296 -20,41 -37,80 -37,87 0,12 152,14 939,14 h 939 l 7,134 c 18,337 -63,646 -232,885 -65,91 -213,237 -299,294 -176,116 -392,198 -601,227 -108,15 -316,20 -413,10 z m 325,-654 c 117,-31 207,-90 275,-180 42,-56 83,-146 95,-209 l 7,-37 h -524 c -289,0 -527,3 -531,6 -9,10 23,105 60,177 72,137 217,234 388,261 47,7 175,-3 230,-18 z"
       id="path11"
       style="fill:#ed2a29;fill-opacity:1" />
  </g>
</svg>
