<?xml version="1.0" encoding="UTF-8" standalone="no"?>
<svg
   width="885"
   height="532"
   version="1.1"
   viewBox="0 0 885 532"
   id="svg13"
   sodipodi:docname="leiper2026logo.svg"
   inkscape:version="1.4.2 (f4327f4, 2025-05-13)"
   xmlns:inkscape="http://www.inkscape.org/namespaces/inkscape"
   xmlns:sodipodi="http://sodipodi.sourceforge.net/DTD/sodipodi-0.dtd"
   xmlns="http://www.w3.org/2000/svg"
   xmlns:svg="http://www.w3.org/2000/svg">
  <defs
     id="defs13" />
  <sodipodi:namedview
     id="namedview13"
     pagecolor="#ffffff"
     bordercolor="#cccccc"
     borderopacity="1"
     inkscape:showpageshadow="0"
     inkscape:pageopacity="1"
     inkscape:pagecheckerboard="0"
     inkscape:deskcolor="#d1d1d1"
     showgrid="false"
     inkscape:zoom="1.3615819"
     inkscape:cx="442.5"
     inkscape:cy="265.86722"
     inkscape:window-width="1920"
     inkscape:window-height="1051"
     inkscape:window-x="-9"
     inkscape:window-y="-9"
     inkscape:window-maximized="1"
     inkscape:current-layer="svg13" />
  <g
     id="Leiper-Logo-White-01"
     fill="none"
     fill-rule="evenodd"
     stroke="none"
     stroke-width="1"
     transform="translate(.43 .658)">
    <g
       id="Layer_1"
       transform="translate(12.038 9.029)">
      <g
         id="Group"
         fill="#FFF"
         transform="translate(150.599)">
        <path
           id="Path"
           d="M136.595 160.487c0 9.581-1.965 18.18-5.65 25.55-3.931 7.616-10.564 13.758-20.391 18.672-9.827 4.913-24.076 8.107-42.502 9.58-18.426 1.475-32.183.738-42.01-2.21-9.827-3.194-16.706-8.107-20.391-14.986C1.965 190.213 0 182.106 0 172.525v-38.08c0-5.65 2.702-8.598 8.353-9.09l33.903-2.948c5.65-.49 8.353 1.966 8.353 7.616v28.499c0 3.193.983 5.65 2.948 7.616 1.966 1.965 6.633 2.702 13.758 1.965 6.879-.491 11.055-1.965 12.775-4.176 1.72-2.212 2.457-4.914 2.457-8.108V49.196c0-5.65 2.702-8.598 8.353-9.09l36.851-3.193c5.65-.492 8.353 1.965 8.353 7.615v115.96h.491ZM273.19 192.916l-108.833 9.581c-5.65.492-8.353-1.965-8.353-7.615V42.809c0-5.65 2.702-8.599 8.353-9.09l108.834-9.582c5.65-.49 8.353 1.966 8.353 7.616V59.27c0 5.65-2.703 8.599-8.353 9.09l-64.613 5.65v17.935l45.696-3.931c5.65-.491 8.353 1.965 8.353 7.616v25.059c0 5.65-2.703 8.598-8.353 9.09l-45.696 3.93v20.146l64.613-5.65c5.65-.492 8.353 1.965 8.353 7.615v27.516c0 5.65-2.703 8.598-8.353 9.09v.491ZM342.47 186.774l-36.359 3.194c-5.65.491-8.353-1.965-8.353-7.616V30.28c0-5.65 2.703-8.598 8.353-9.09L410.77 12.1c5.65-.491 8.353 1.966 8.353 7.616v28.007c0 5.65-2.703 8.599-8.353 9.09l-59.7 5.16v24.321l40.783-3.44c5.65-.49 8.353 1.966 8.353 7.617v28.252c0 5.65-2.703 8.599-8.353 9.09l-40.782 3.44v46.187c0 5.65-2.703 8.598-8.353 9.09l-.246.245ZM481.523 174.736l-36.36 3.194c-5.65.491-8.353-1.965-8.353-7.616V18.241c0-5.65 2.703-8.598 8.353-9.09L549.821.061c5.65-.491 8.353 1.966 8.353 7.616v28.007c0 5.65-2.703 8.599-8.353 9.09l-59.7 5.16v24.321l40.783-3.44c5.65-.49 8.353 1.966 8.353 7.617v28.252c0 5.65-2.703 8.599-8.353 9.09l-40.782 3.44V165.4c0 5.65-2.703 8.598-8.353 9.09l-.246.245Z"
           style="fill:#95001b;fill-opacity:1" />
      </g>
      <g
         id="g3"
         fill="#FFF"
         transform="translate(0 179.764)">
        <path
           id="path1"
           d="M127.751 227.626 8.353 237.944C2.703 238.436 0 235.98 0 230.328V78.501c0-5.65 2.702-8.598 8.353-9.09l36.36-3.194c5.65-.49 8.353 1.966 8.353 7.616v115.959l74.44-6.142c5.65-.491 8.352 1.966 8.352 7.616v27.024c0 5.65-2.702 8.599-8.353 9.09l.246.246ZM268.523 215.342l-108.834 9.582c-5.65.49-8.353-1.966-8.353-7.616V65.48c0-5.65 2.702-8.598 8.353-9.09l108.834-9.58c5.65-.492 8.353 1.965 8.353 7.615v27.516c0 5.65-2.703 8.598-8.353 9.09l-64.613 5.65v17.934l45.696-3.93c5.65-.492 8.353 1.965 8.353 7.616v25.058c0 5.65-2.703 8.599-8.353 9.09l-45.696 3.931v20.146l64.613-5.651c5.65-.491 8.353 1.965 8.353 7.616v27.516c0 5.65-2.703 8.598-8.353 9.09v.245ZM297.512 212.64c-5.65.491-8.353-1.966-8.353-7.616v-28.007c0-5.65 2.703-8.599 8.353-9.09l23.094-1.965V87.1l-23.094 1.965c-5.65.492-8.353-1.965-8.353-7.616V53.197c0-5.65 2.703-8.599 8.353-9.09l99.744-8.599c5.651-.491 8.353 1.965 8.353 7.616v28.253c0 5.65-2.702 8.598-8.353 9.09l-22.847 1.965v78.862l22.847-1.966c5.651-.491 8.353 1.966 8.353 7.616v28.007c0 5.65-2.702 8.599-8.353 9.09l-99.744 8.599Z"
           style="fill:#95001b;fill-opacity:1" />
        <path
           id="Shape"
           fill-rule="nonzero"
           d="m467.765 197.9-36.36 3.193c-5.65.491-8.353-1.965-8.353-7.616V41.65c0-5.65 2.703-8.599 8.353-9.09l71.737-6.142c14.25-1.228 25.305-.246 33.412 2.948s13.758 7.862 16.952 14.495c3.194 6.633 4.913 14.495 4.913 23.585v29.972c0 9.09-1.72 17.197-4.913 24.322-3.194 7.125-8.845 13.02-16.952 17.443-8.107 4.422-19.162 7.37-33.412 8.599l-27.024 2.456v38.817c0 5.65-2.702 8.599-8.353 9.09v-.246Zm7.862-125.54v35.377l21.128-1.72c4.422-.492 7.616-1.72 8.844-4.177 1.474-2.456 2.211-5.159 2.211-8.107v-12.53c0-3.193-.737-5.65-2.21-7.861-1.475-2.211-4.423-2.948-8.845-2.702l-21.128 1.72Z"
           style="fill:#95001b;fill-opacity:1" />
        <path
           id="path2"
           d="m688.381 178.737-108.834 9.58c-5.65.492-8.353-1.964-8.353-7.615V28.875c0-5.65 2.703-8.599 8.353-9.09l108.834-9.581c5.65-.492 8.353 1.965 8.353 7.615v27.516c0 5.65-2.702 8.599-8.353 9.09l-64.612 5.65V78.01l45.695-3.93c5.65-.492 8.353 1.964 8.353 7.615v25.059c0 5.65-2.702 8.598-8.353 9.09l-45.695 3.93v20.146l64.612-5.65c5.65-.492 8.353 1.965 8.353 7.615v27.516c0 5.65-2.702 8.599-8.353 9.09v.246Z"
           style="fill:#95001b;fill-opacity:1" />
        <path
           id="path3"
           fill-rule="nonzero"
           d="m757.17 172.595-36.114 3.194c-5.65.49-8.353-1.966-8.353-7.616V16.345c0-5.65 2.703-8.598 8.353-9.09L799.181.377c11.792-.983 20.882 0 27.761 2.456 6.633 2.703 11.547 6.88 14.25 12.53 2.702 5.65 4.176 12.283 4.176 20.145v10.81c0 6.633-.983 12.284-2.703 16.951-1.965 4.668-5.405 8.353-10.318 11.056 8.599 0 15.477 2.948 20.637 8.598 5.159 5.405 7.616 13.267 7.616 23.094v49.626c0 5.65-2.703 8.599-8.353 9.09l-36.36 3.194c-5.65.491-8.353-1.965-8.353-7.616v-35.869c0-3.685-.737-6.141-1.966-7.615-1.228-1.475-3.685-1.966-6.879-1.72l-32.92 2.948v45.941c0 5.65-2.702 8.599-8.353 9.09l-.246-.491Zm8.599-127.26v29.972l17.689-1.474c4.176-.245 6.878-1.72 8.107-3.93 1.474-2.211 2.21-4.914 2.21-8.108v-7.861c0-3.194-.736-5.65-2.21-7.616-1.474-1.966-4.177-2.703-8.107-2.457l-17.689 1.474Z"
           style="fill:#95001b;fill-opacity:1" />
      </g>
      <g
         id="g12"
         fill="#C7C8CA"
         transform="translate(32.43 390.93)">
        <path
           id="path4"
           d="M45.941 116.45V89.671L32.675 112.52l-6.388.491-13.02-19.9v26.042L0 120.381V69.77l11.792-.982L29.481 96.55l17.443-30.71 11.792-.982v50.61l-13.02 1.228.245-.246Z" />
        <path
           id="path5"
           fill-rule="nonzero"
           d="m117.678 100.481-21.373 1.965-3.931 10.073-14.495 1.229 22.356-52.575 14.004-1.228 22.356 48.643-14.986 1.229-3.93-9.582v.246Zm-4.422-10.318L106.87 74.44l-6.388 16.705 13.02-1.228-.245.246Z" />
        <path
           id="path6"
           d="M178.851 86.723v18.18l-14.249 1.229V87.706l-19.408-30.464 14.986-1.228 12.038 19.163 12.038-21.129 13.758-1.228-19.408 34.149z" />
        <path
           id="path7"
           fill-rule="nonzero"
           d="M211.526 76.896c0-15.232 12.038-27.27 28.007-28.744 16.215-1.474 28.007 8.599 28.007 23.83 0 15.233-12.038 27.27-28.007 28.745-16.214 1.474-28.007-8.599-28.007-23.83Zm41.765-3.685c0-8.844-5.896-14.003-13.758-13.266-7.616.737-13.758 6.879-13.758 15.723 0 8.844 5.897 14.003 13.758 13.266 7.616-.737 13.758-6.879 13.758-15.723ZM311.762 79.844l-7.862.737v13.513l-14.25 1.228v-50.61l23.094-1.965c13.758-1.228 22.357 5.16 22.357 16.706 0 11.547-3.685 13.267-9.827 16.952l10.81 14.986-15.232 1.228-9.09-12.529v-.246Zm.245-25.795-7.861.737v14.74l7.861-.737c5.896-.491 8.845-3.44 8.845-8.107 0-4.668-2.949-7.125-8.845-6.634Z" />
        <path
           id="path8"
           d="M545.153 72.965V46.187l-13.267 22.848-6.387.491-13.02-19.9v26.042l-13.267 1.228V26.287l11.792-.982 17.689 27.76 17.443-30.709 11.792-.982v50.609l-13.02 1.228.245-.246Z" />
        <path
           id="path9"
           fill-rule="nonzero"
           d="m616.89 56.75-21.374 1.966-3.93 10.073-14.495 1.228 22.356-52.574 14.003-1.228 22.357 48.643-14.986 1.229-3.931-9.582v.246Zm-4.177-10.072-6.387-15.723-6.388 16.706 13.021-1.228-.246.245Z" />
        <path
           id="path10"
           d="m654.233 12.775 14.249-1.228v50.609l-14.25 1.228z" />
        <path
           id="path11"
           fill-rule="nonzero"
           d="m715.406 44.713-7.862.737v13.512l-14.25 1.228V9.581l23.094-1.965c13.758-1.228 22.357 5.16 22.357 16.706 0 11.547-3.685 13.266-9.827 16.951l10.81 14.987-15.232 1.228-9.09-12.53v-.245Zm0-26.042-7.862.737v14.74l7.862-.736c5.896-.492 8.844-3.44 8.844-8.107 0-4.668-2.948-7.125-8.844-6.634Z" />
        <path
           id="path12"
           d="M801.638 39.554v11.055L761.1 54.05V3.438L800.901 0v11.055l-25.55 2.211v8.6l22.356-1.966v10.81l-22.357 1.965v9.335l26.533-2.21z" />
      </g>
      <path
         id="path13"
         fill="#C7C8CA"
         d="M449.34 507.626c3.193-6.633 3.93-17.443 4.176-25.059s0-20.391-.246-30.464c-.245-10.072 0-1.474 0-2.21 1.966 9.826 3.194 19.653 4.177 29.972l16.706 2.702-4.668-7.616a186.865 186.865 0 0 1 31.2-20.882c-1.473-.246-2.456-.492-3.93-.737-2.703-.246-4.914-2.948-3.685-5.897l4.422-11.792-11.055 2.948c-2.703.737-5.405-.737-5.651-3.685l-.737-2.702-14.74 17.934 7.37-30.955-5.405 3.194c-1.966 1.228-4.914 1.228-6.142-.737l-7.37-12.53-7.37 13.758c-1.229 2.457-4.423 2.948-6.634 1.965l-5.159-2.21 7.37 29.48-14.74-15.232-.737 2.703c-.246 2.702-2.703 4.913-5.405 4.668l-11.301-.983 4.422 11.301c.983 2.457-.983 5.405-3.44 6.142l-4.422 1.474c11.056 3.93 21.374 9.09 31.201 15.477l-4.668 8.353 16.706-5.65c-.737 8.599-2.457 17.197-5.896 25.796 1.72 1.228 4.177 1.965 6.388 1.228l-.737.246Z" />
    </g>
  </g>
</svg>
