<?xml version="1.0" encoding="UTF-8" standalone="no"?>
<!-- Created with Inkscape (http://www.inkscape.org/) -->

<svg
   version="1.1"
   id="svg1"
   width="684.67102"
   height="500"
   viewBox="0 0 684.67102 500"
   sodipodi:docname="ms-logo-heart.png"
   xmlns:inkscape="http://www.inkscape.org/namespaces/inkscape"
   xmlns:sodipodi="http://sodipodi.sourceforge.net/DTD/sodipodi-0.dtd"
   xmlns="http://www.w3.org/2000/svg"
   xmlns:svg="http://www.w3.org/2000/svg">
  <defs
     id="defs1" />
  <sodipodi:namedview
     id="namedview1"
     pagecolor="#ffffff"
     bordercolor="#cccccc"
     borderopacity="1"
     inkscape:showpageshadow="0"
     inkscape:pageopacity="1"
     inkscape:pagecheckerboard="0"
     inkscape:deskcolor="#d1d1d1">
    <inkscape:page
       x="0"
       y="0"
       width="684.67102"
       height="500"
       id="page2"
       margin="0"
       bleed="0" />
  </sodipodi:namedview>
  <g
     inkscape:groupmode="layer"
     inkscape:label="Image"
     id="g1">
    <path
       style="fill:#49f6b2;fill-opacity:1;stroke-width:1.2036"
       d="m 245.79635,291.57951 -20.10766,-24.30435 c -11.05913,-13.36739 -20.6938,-23.9884 -21.01023,-24.37283 -39.39496,-47.85958 -1.04467,-1.22597 -29.78904,-36.44614 l -47.639,-56.99414 C 95.676562,111.68764 79.920986,91.946366 80.529165,90.921509 81.033836,90.071162 87.542645,81.7028 94.993157,72.325207 l 13.546373,-17.050141 6.99675,-1.370779 c 3.84814,-0.753932 9.12399,-2.018081 11.72424,-2.809204 l 4.72761,-1.438412 5.02804,-15.044954 c 5.85682,-17.524985 1.9367,-16.053833 30.04986,-11.276748 17.10902,2.907291 19.37023,3.636068 43.20422,13.924999 l 25.15026,10.85718 18.78105,15.958964 c 10.32952,8.777359 25.47727,21.987192 33.66173,29.355127 8.18435,7.367951 15.26103,13.396281 15.72597,13.396281 0.46476,0 5.95491,-5.26983 12.20026,-11.710759 l 11.35499,-11.710746 8.93357,-1.447572 c 4.91357,-0.796053 9.36881,-2.161054 9.9008,-3.033297 0.53185,-0.872134 3.82359,-6.157135 7.31487,-11.74423 l 6.3479,-10.158474 20.11005,-5.031399 c 19.11432,-4.782138 20.81297,-5.454225 34.30253,-13.571408 10.3679,-6.238705 24.08061,-12.606705 50.88666,-23.631288 20.18192,-8.3002372 37.09692,-14.95360781 37.58907,-14.78521985 1.01548,0.34734716 58.71426,102.85963285 58.71426,104.31646285 0,0.52007 -19.49829,13.34595 -43.32951,28.50201 -23.83124,15.15618 -43.32952,28.02129 -43.32952,28.58927 0,0.56786 3.11431,6.102 6.92068,12.29812 l 6.9207,11.26553 c 16.0023,25.47967 4.27023,6.75472 11.84942,18.70499 9.31211,14.68267 10.67578,17.63703 8.80082,19.06643 -8.25439,6.29286 -13.26088,11.5858 -13.98219,12.15463 -26.74804,21.09412 0.32275,-0.24799 -20.54072,16.20848 l -3.41761,2.78307 c -1.87967,1.53073 -7.40165,6.0328 -12.27104,10.00467 -4.86952,3.97187 -9.74866,7.78546 -10.70913,8.63665 -22.59731,20.02676 -6.70921,6.13809 -23.54791,20.11499 -1.29266,1.07315 -4.74626,3.28619 -8.30133,5.99765 l -4.30876,3.28653 c -38.67844,31.32746 0.5554,-1.15587 -34.30251,28.25889 l -3.97175,3.5624 -3.97176,3.56229 c -21.32606,16.37638 -2.98793,2.48363 -20.04303,15.86172 l -21.90956,16.55608 c -5.19245,3.92361 1.78469,-1.2943 -10.44109,7.57832 l -39.20286,-46.91331 -5.17294,-6.1854 c -13.74677,-15.99353 -13.48319,-15.83694 -27.18627,-32.63409 z m 7.32691,8.78818 c -28.66476,-34.28421 -23.31597,-28.01852 0,0 z"
       id="path3"
       sodipodi:nodetypes="csscssscsscssscsssscssscsssssssscssscssssscccccscccccc" />
    <path
       style="fill:#1f3147;fill-opacity:1;stroke-width:1.2036"
       d="m 249.1713,499.40006 c -5.57025,-1.7691 -10.27072,-5.88672 -12.88515,-11.28737 -3.08858,-6.38018 -3.15121,-11.92568 -0.20787,-18.40709 7.00987,-15.43622 28.44505,-16.6571 36.97264,-2.10584 5.95825,10.16697 2.10617,24.71164 -7.9176,29.89513 -4.48546,2.31946 -11.87888,3.20193 -15.96202,1.90517 z m 12.37968,-13.2136 c 6.93481,-6.9348 2.95104,-18.14653 -6.44786,-18.14653 -10.44043,0 -13.84226,15.36825 -4.45337,20.11879 4.57586,2.31527 7.06383,1.86516 10.90123,-1.97226 z M 100.17633,478.2705 v -21.06294 h 5.19789 5.1979 l 5.93537,12.57957 c 3.26447,6.91876 6.26285,12.60576 6.66308,12.63776 0.40021,0.0315 3.49267,-5.6288 6.8721,-12.57958 l 6.14442,-12.63775 h 5.46478 5.46475 v 21.06294 21.06294 h -6.01798 -6.01799 l -0.0916,-9.92966 -0.0916,-9.92968 -4.66335,9.92968 c -3.41027,7.26147 -5.27128,9.92966 -6.92575,9.92966 -1.65097,0 -3.53432,-2.68349 -6.9689,-9.92966 l -4.70651,-9.92968 -0.36083,9.92968 -0.36083,9.92966 h -5.36743 -5.36752 z m 53.02457,20.16024 c 0.037,-0.49652 3.17445,-9.83939 6.97333,-20.76204 l 6.90704,-19.85934 h 6.4007 6.40069 l 7.07351,20.46114 c 3.89043,11.25363 7.07964,20.59656 7.08715,20.76204 0.007,0.16555 -2.65144,0.30085 -5.90874,0.30085 -5.60177,0 -5.96529,-0.19541 -6.71541,-3.61079 -0.77081,-3.50935 -0.99059,-3.61078 -7.82339,-3.61078 -6.83284,0 -7.05261,0.10133 -7.8234,3.61078 -0.75012,3.41533 -1.11368,3.61079 -6.71541,3.61079 -3.2573,0 -5.89252,-0.40629 -5.85607,-0.90267 z m 23.52475,-18.90357 c -0.40806,-1.62575 -1.33648,-4.46924 -2.06329,-6.31888 l -1.32142,-3.36298 -1.65972,5.4162 c -2.22316,7.25477 -2.23254,7.22158 2.045,7.22158 3.37176,0 3.668,-0.29194 2.99939,-2.95592 z m 30.57085,12.48325 c 0,-6.66683 -0.64715,-8.51752 -7.22157,-20.6533 -3.97188,-7.33165 -7.2216,-13.51461 -7.2216,-13.73991 0,-0.22525 2.59187,-0.4097 5.75967,-0.4097 h 5.75966 l 4.00443,8.12056 4.00442,8.12056 4.09388,-8.12056 4.09388,-8.12056 h 6.05212 6.05214 l -2.8916,5.11528 c -11.32391,20.03216 -11.65304,20.85357 -11.65304,29.08189 v 7.92871 h -5.41619 -5.4162 z m 77.03025,-13.73992 v -21.06294 l 9.32788,0.007 c 5.13034,0.004 11.32414,0.56116 13.76401,1.23884 10.28673,2.85705 14.08121,14.72483 6.97884,21.82721 l -3.63003,3.63002 4.23182,6.96633 c 2.32749,3.83095 4.23182,7.30117 4.23182,7.71105 0,0.40984 -2.59527,0.7452 -5.76726,0.7452 h -5.76725 l -3.24666,-6.61977 c -2.33106,-4.75294 -3.92919,-6.61979 -5.66691,-6.61979 -2.13127,0 -2.42028,0.79052 -2.42028,6.61979 v 6.61977 h -6.01799 -6.01799 z m 22.43899,-4.82971 c 1.0967,-2.85805 -1.88721,-5.40086 -6.33779,-5.40086 -3.71452,0 -4.06522,0.31153 -4.06522,3.61079 0,3.41488 0.26332,3.61079 4.85216,3.61079 3.22089,0 5.08707,-0.6121 5.55085,-1.82072 z m 82.27398,4.82971 v -21.06294 h 5.49992 5.49994 l 5.96122,12.63775 c 3.27867,6.95078 6.25314,12.63778 6.60994,12.63778 0.35685,0 3.36536,-5.687 6.68566,-12.63778 l 6.03693,-12.63775 h 5.32336 5.32334 v 21.06294 21.06294 h -5.36752 -5.36752 l -0.35959,-9.92966 -0.35958,-9.92968 -4.80444,9.91378 c -6.30769,13.01577 -7.70751,13.01734 -13.87173,0.0164 l -4.70781,-9.92969 -0.0329,9.92969 -0.0329,9.92965 h -6.01798 -6.01798 z m 58.95135,3.91169 c 3.23589,-9.43319 6.51393,-18.91151 7.28453,-21.06294 1.33456,-3.72579 1.69581,-3.91169 7.60253,-3.91169 h 6.20149 l 6.61945,19.53129 c 3.64071,10.74221 6.79459,20.22054 7.00862,21.06294 0.27318,1.07507 -1.2702,1.53165 -5.17791,1.53165 -5.10349,0 -5.67185,-0.30071 -6.82577,-3.61079 -1.20269,-3.45006 -1.56825,-3.61078 -8.21213,-3.61078 -6.76311,0 -6.97315,0.0986 -7.67554,3.61078 -0.68645,3.43189 -1.0192,3.61079 -6.71545,3.61079 h -5.99329 z m 18.0789,-1.32484 c 0,-2.62178 -2.55914,-9.20657 -3.57809,-9.20657 -0.51446,0 -1.23597,1.48944 -1.60336,3.30989 -0.3674,1.82044 -1.03468,4.25772 -1.48282,5.41618 -0.66893,1.7289 -0.14474,2.10629 2.92471,2.10629 2.33804,0 3.73956,-0.60935 3.73956,-1.62579 z m 24.07194,-2.58679 v -21.06294 h 5.4162 5.41618 v 21.06294 21.06293 h -5.41618 -5.4162 z m 21.66477,-0.14351 v -21.20651 l 11.25945,0.49241 c 11.989,0.52432 15.88192,2.03061 19.49338,7.5424 1.04509,1.5949 1.94659,4.53681 2.00347,6.53758 0.0904,3.19233 -0.95949,5.37836 -5.58996,11.63524 -0.7578,1.024 0.29249,3.87906 3.25851,8.85815 l 4.3767,7.34719 h -6.31767 -6.31767 l -3.24665,-6.61977 c -2.33106,-4.75294 -3.92918,-6.61979 -5.66691,-6.61979 -2.13127,0 -2.42027,0.79052 -2.42027,6.61979 v 6.61977 h -5.4162 -5.41618 z m 21.06295,-6.47622 c 0,-2.67953 -0.56006,-3.04951 -5.11529,-3.3791 -5.00242,-0.36191 -5.11528,-0.28742 -5.11528,3.3791 0,3.66648 0.11228,3.74103 5.11528,3.3791 4.55523,-0.3296 5.11529,-0.6996 5.11529,-3.3791 z m 21.06296,6.61978 v -21.06294 h 15.64677 15.64677 v 5.41619 5.41618 h -10.23058 c -10.11022,0 -10.23059,0.0356 -10.23059,3.00898 0,2.94212 0.20061,3.009 9.02699,3.009 h 9.02697 v 4.21259 4.21259 h -9.02697 -9.02699 v 3.61079 3.6108 h 10.23059 10.23058 v 4.81437 4.81439 h -15.64677 -15.64677 z m -205.26807,4.86898 c -3.35995,-3.35994 -3.20594,-7.14487 0.40629,-9.98437 6.20061,-4.87422 14.45233,3.37749 9.5781,9.5781 -2.83952,3.61222 -6.62445,3.76623 -9.98437,0.40629 z M 35.733969,408.5884 C 16.737985,403.97344 3.113346,390.01304 0.74549695,372.73773 L 0,367.29869 7.6613444,366.55388 c 4.2137466,-0.40971 11.7273836,-1.0952 16.6969896,-1.52357 l 9.035637,-0.77875 1.560571,4.31569 c 2.327241,6.43583 6.557403,9.20293 14.068887,9.20293 8.204372,0 12.637775,-3.1865 12.637775,-9.0834 0,-4.98994 -1.532757,-5.90143 -21.452213,-12.75701 C 24.559696,350.54381 19.887043,348.10672 13.072537,341.77623 6.2486684,335.43707 2.7110307,327.16142 2.6966841,317.50384 2.6729808,301.53689 8.9516599,291.68681 23.84506,284.32609 c 8.208933,-4.05707 10.084463,-4.49363 21.483337,-5.00059 14.536955,-0.6466 25.058383,1.84753 34.680268,8.2208 9.990353,6.61735 17.760463,19.4247 17.760463,29.27435 v 4.01888 l -15.345869,1.39307 c -19.305534,1.75254 -18.35486,1.80118 -18.35486,-0.93909 0,-3.77217 -5.732783,-9.55855 -10.323196,-10.41972 -7.037098,-1.32018 -13.748755,2.80133 -13.748755,8.44284 0,3.77723 4.850486,6.51133 21.244568,11.97506 9.902134,3.30012 19.268704,7.2855 22.951302,9.7655 23.406542,15.76287 20.640152,48.14855 -5.319789,62.27771 -12.042608,6.55441 -29.18889,8.64253 -43.13856,5.25353 z m 97.431161,-0.51802 c -7.05626,-2.43926 -12.00419,-6.1625 -16.5847,-12.47975 -6.67979,-9.21255 -7.15258,-12.13564 -7.70036,-47.60946 l -0.50647,-32.79803 h 16.36252 16.36252 v 26.51779 c 0,29.47235 0.74328,33.321 7.067,36.59109 7.32536,3.78809 16.56083,1.34141 19.99358,-5.29684 1.4736,-2.84962 1.82577,-8.76573 1.82577,-30.67134 v -27.1407 h 16.24856 16.24857 v 46.33847 46.33847 h -11.95486 c -10.3108,0 -12.05322,-0.28962 -12.66993,-2.10629 -0.39327,-1.15847 -1.47735,-3.10889 -2.40907,-4.33427 -1.62686,-2.13967 -1.86134,-2.10037 -5.91473,0.99126 -9.97492,7.60824 -24.28775,9.83555 -36.3684,5.65951 z m 112.21328,0.23265 c -3.95506,-1.21474 -7.72616,-3.67332 -11.64453,-7.59171 -8.19431,-8.19428 -9.58701,-13.6568 -9.58701,-37.60278 v -19.03909 h -6.61978 -6.61978 v -13.23957 -13.23955 h 4.27236 c 4.97338,0 10.75757,-2.67449 11.83034,-5.47011 0.41121,-1.07165 0.74766,-5.96621 0.74766,-10.8769 v -8.92853 h 13.84138 13.84135 v 11.43417 11.43416 h 9.62879 9.62879 v 14.44316 14.44317 h -9.62879 -9.62879 v 12.67642 c 0,19.02366 2.5889,23.43148 13.76226,23.43148 h 5.49532 v 13.69848 13.69847 l -5.34738,1.34647 c -7.2013,1.81331 -16.868,1.5642 -23.97219,-0.61771 z m 71.44547,0.24197 c -13.98328,-3.89089 -25.34275,-13.53237 -31.66287,-26.87425 -3.51049,-7.41068 -3.83676,-9.10312 -3.76827,-19.54731 0.0972,-14.84517 3.00667,-22.61672 12.17296,-32.51743 14.61421,-15.78508 38.19317,-20.70684 57.75228,-12.05491 6.34205,2.80539 15.34172,11.02783 19.11216,17.46162 2.52998,4.31707 6.89722,14.95216 6.21933,15.14526 -0.13556,0.0383 -6.99402,0.74287 -15.23976,1.56461 l -14.99225,1.4941 -3.42278,-3.89832 c -6.14132,-6.99456 -15.18422,-8.09371 -22.67946,-2.75662 -5.47148,3.89604 -7.44527,8.79959 -6.8507,17.01945 0.44763,6.18749 1.05781,7.63475 4.7952,11.37212 7.38402,7.384 19.28418,6.87694 25.51713,-1.08726 l 2.80098,-3.57896 15.08621,1.48341 15.08621,1.48338 -0.92019,3.16088 c -4.61206,15.84295 -15.2537,26.91135 -30.4086,31.62809 -8.17629,2.54474 -20.48042,2.7608 -28.59761,0.50214 z m 306.91737,0 c -14.11967,-3.92885 -24.45201,-12.49604 -30.96575,-25.67572 -4.32146,-8.74386 -4.53678,-9.74117 -4.46539,-20.68341 0.0972,-14.9133 2.99358,-22.66504 12.17295,-32.57986 27.64038,-29.85489 75.83474,-16.58971 83.47778,22.97671 0.69398,3.59245 0.91814,9.10442 0.49803,12.24883 l -0.76369,5.71708 h -31.06791 c -29.86482,0 -31.04489,0.0876 -30.47346,2.27319 0.327,1.25021 2.4728,4.09373 4.76857,6.31885 3.57443,3.46449 5.01457,4.04571 10.0244,4.04571 4.26412,0 6.89451,-0.77204 9.70169,-2.84747 3.83826,-2.83772 3.90313,-2.84256 19.04253,-1.41915 8.35512,0.78559 15.37105,1.60821 15.59097,1.82812 0.7849,0.78491 -4.66128,10.26786 -8.23392,14.33687 -11.02344,12.555 -31.99012,18.27869 -49.30686,13.46025 z m 28.88634,-57.99733 c 0,-1.07083 -2.10276,-4.04973 -4.67278,-6.61978 -4.03411,-4.03408 -5.40814,-4.67278 -10.0526,-4.67278 -6.62256,0 -12.73693,3.80647 -14.98347,9.32788 l -1.5916,3.91168 h 15.65023 c 13.61476,0 15.65022,-0.25319 15.65022,-1.947 z m -270.80944,-6.4782 v -63.79065 h 16.24856 16.24857 v 63.79065 63.79061 h -16.24857 -16.24856 z m 43.3295,17.45214 v -46.33847 h 15.64677 15.64676 v 46.33847 46.33847 h -15.64676 -15.64677 z m 52.9583,16.85037 v -29.48813 h -5.4162 -5.41618 v -14.44316 -14.44315 h 5.34244 5.34243 l 0.78546,-5.7171 c 1.84371,-13.41893 4.81131,-19.47605 12.60155,-25.72091 7.88362,-6.31971 24.02688,-8.59316 34.00163,-4.78842 l 3.30989,1.26253 v 13.60207 13.60205 l -4.83038,-0.46064 c -5.24929,-0.50063 -9.82535,1.71252 -12.01998,5.81324 -1.25172,2.3388 -0.91527,2.40719 11.84268,2.40719 h 13.131 l 0.54103,-9.92969 c 0.60744,-11.14878 2.52986,-15.94323 9.17223,-22.87607 7.65811,-7.99303 23.04397,-11.49096 35.42257,-8.05326 l 4.5135,1.2535 v 13.78479 13.78479 h -5.28287 c -6.28241,0 -9.93732,2.58202 -11.50007,8.12429 l -1.103,3.91169 h 8.94296 8.94296 v 14.44316 14.44316 h -9.02686 -9.02699 v 29.48812 29.4881 h -15.64677 -15.64676 v -29.4881 -29.48812 h -13.23956 -13.23958 v 29.48812 29.4881 h -16.24857 -16.24856 z m -45.42832,-74.79712 c -13.17722,-6.4961 -10.50708,-26.03875 4.01013,-29.3499 10.51101,-2.39742 19.71375,3.91331 20.5935,14.12189 1.12245,13.02467 -12.2651,21.31066 -24.60363,15.22801 z M 314.99611,260.60897 c -9.21516,-4.17103 -15.03805,-15.85893 -12.53675,-25.16413 2.90706,-10.81453 14.87326,-17.58633 34.52479,-19.53796 7.46387,-0.74122 8.72607,-1.19708 8.72607,-3.15163 0,-3.25061 -4.27245,-7.09944 -7.88084,-7.09944 -1.73252,0 -4.29104,1.32128 -5.88149,3.03746 -2.78931,3.00972 -2.91244,3.0263 -13.483,1.81527 -5.86739,-0.67221 -11.29432,-1.22665 -12.05982,-1.23213 -3.03194,-0.0219 1.40413,-9.11364 7.37779,-15.12145 7.17576,-7.2168 13.89882,-9.61482 26.51118,-9.45619 10.39967,0.13145 18.11914,3.49631 24.13198,10.52096 6.7047,7.83295 7.76335,13.47108 7.76335,41.3462 v 24.45528 h -9.36926 c -9.09439,0 -9.4307,-0.10407 -11.46249,-3.54348 l -2.09319,-3.5435 -6.18418,3.8443 c -5.3311,3.314 -7.44408,3.88779 -15.31758,4.15957 -5.78738,0.19978 -10.46439,-0.28716 -12.76656,-1.32922 z m 24.03611,-18.14154 c 4.70337,-1.9652 6.678,-5.00929 6.678,-10.29481 v -3.73136 l -6.31888,0.78162 c -8.8562,1.09547 -11.97229,3.28224 -11.50492,8.07406 0.25744,2.63907 1.29649,4.27555 3.38063,5.32435 3.69165,1.85773 2.914,1.87313 7.76517,-0.15378 z M 178.41016,209.22841 v -51.79285 l 14.04039,0.33905 14.04038,0.33905 14.54507,30.95013 c 7.99977,17.02255 14.8392,30.96923 15.1987,30.99262 0.35946,0.0233 7.25127,-13.90418 15.31504,-30.95013 l 14.66136,-30.99262 13.87222,-0.33905 13.87221,-0.33905 v 51.79285 51.79287 h -14.41825 -14.41825 l -0.32576,-24.19566 -0.32577,-24.19568 -11.28874,24.19568 -11.28874,24.19566 -5.56163,-0.003 -5.56162,-0.003 -10.69579,-23.16687 c -5.88269,-12.74169 -11.16347,-23.68133 -11.73508,-24.3102 -0.58676,-0.64551 -1.03933,9.44301 -1.03933,23.16923 V 261.0201 H 192.8534 178.41023 Z m 204.61158,14.48138 v -37.31152 h 8.92659 c 8.23384,0 9.10408,0.24361 11.21365,3.13964 l 2.28706,3.13961 5.34917,-3.77042 c 6.10384,-4.30239 12.24984,-5.6858 17.05753,-3.8395 l 3.3099,1.27102 v 13.1024 13.10236 l -5.20818,-1.19173 c -4.20333,-0.96183 -6.04312,-0.79559 -9.53576,0.86172 -7.08375,3.36146 -8.12442,7.13135 -8.12442,29.4313 v 19.37656 h -12.63777 -12.63777 z m 55.36548,-14.44317 v -51.75468 h 13.21817 13.21818 l 0.32234,28.95402 0.32234,28.95403 8.3874,-14.51086 8.38739,-14.51086 h 14.2511 c 11.06706,0 14.05478,0.33617 13.37249,1.5045 -0.48324,0.82749 -5.44357,8.69174 -11.02298,17.47614 -5.57941,8.78442 -9.88448,16.64898 -9.56679,17.47681 0.31769,0.82776 5.78764,9.49401 12.15552,19.25823 6.36789,9.76421 11.57798,18.01279 11.57798,18.33021 0,0.31741 -6.36403,0.56321 -14.14228,0.54623 l -14.14227,-0.0315 -9.62877,-15.85489 -9.62879,-15.8549 -0.3359,15.88578 -0.33576,15.8857 h -13.20464 -13.20463 z"
       id="path2"
       sodipodi:nodetypes="ssssssssssccccssscccccccccsssccccccsscccscsssssssscssssssscccccccsscccscccssccsscsssccccsssssccccssscccccccccssccccccssscssssssscssssssscccccccccccssssscccsssccccsssssccccccsssccccccccccccccsssssscsscsssssssssscssssssssssscccsssscccccsssssssscccccssscccccccccccsscccsssssssssscssssscccssssssssscssssssssssssscssccccccccccccccccccccccccccssscccssscssscccssccccccccccccccccccccsssssssssssssssscsscssssscssssccccssscccccccccccccsssccccccsscsscccsssccccccccccccssssssscccccccc" />
  </g>
</svg>
