<?xml version="1.0" encoding="UTF-8" standalone="no"?>
<!-- Created with Inkscape (http://www.inkscape.org/) -->

<svg
   version="1.1"
   id="svg1"
   width="504.2048"
   height="232.79346"
   viewBox="0 0 504.2048 232.79346"
   sodipodi:docname="OneBC_logo.png"
   xmlns:inkscape="http://www.inkscape.org/namespaces/inkscape"
   xmlns:sodipodi="http://sodipodi.sourceforge.net/DTD/sodipodi-0.dtd"
   xmlns="http://www.w3.org/2000/svg"
   xmlns:svg="http://www.w3.org/2000/svg">
  <defs
     id="defs1" />
  <sodipodi:namedview
     id="namedview1"
     pagecolor="#ffffff"
     bordercolor="#cccccc"
     borderopacity="1"
     inkscape:showpageshadow="0"
     inkscape:pageopacity="1"
     inkscape:pagecheckerboard="0"
     inkscape:deskcolor="#d1d1d1">
    <inkscape:page
       x="0"
       y="0"
       width="504.2048"
       height="232.79346"
       id="page2"
       margin="0"
       bleed="0" />
  </sodipodi:namedview>
  <g
     inkscape:groupmode="layer"
     inkscape:label="Image"
     id="g1"
     transform="translate(-1,-1.1722538)">
    <g
       id="g2">
      <path
         style="fill:#d1a55c;fill-opacity:1"
         d="M 13.00714,232.40702 C 8.4638266,230.43678 5.2609357,227.38835 2.902682,222.78984 1.069348,219.2149 1,215.38454 1,117.69712 V 16.314567 L 3.3267731,11.907284 C 4.6064982,9.4832777 7.5702621,6.15 9.9129149,4.5 l 4.2593691,-3 H 48 81.827716 l 4.336142,3.0444047 C 88.548736,6.2188273 91.625,9.5938273 93,12.044405 L 95.5,16.5 l 0.273952,97.97614 c 0.184314,65.91822 -0.07141,99.63972 -0.781542,103.06042 -1.253047,6.0359 -5.568805,11.69652 -11.049298,14.49246 -3.609969,1.84167 -5.949063,1.96841 -35.653274,1.93184 -26.12737,-0.0322 -32.411993,-0.30894 -35.282698,-1.55384 z M 61,117.5 V 34 H 44.5 C 35.425,34 27.990652,34.3375 27.979226,34.75 27.9678,35.1625 27.30612,41.8 26.508826,49.5 25.711532,57.2 25.04588,64.2875 25.0296,65.25 25.004937,66.708133 25.917295,67 30.5,67 H 36 v 67 67 H 48.5 61 Z M 110,117 V 3 h 15.37689 15.37689 l 14.26605,57.25 c 7.84632,31.4875 14.63804,57.925 15.0927,58.75 0.45466,0.825 0.84034,-24.9375 0.85706,-57.25 L 171,3 H 186.5 202 V 117 231 H 188.17787 174.35574 L 158.05943,168.75 C 149.09646,134.5125 141.36642,106.0725 140.88156,105.55 140.37209,105.00098 140,131.27569 140,167.8 V 231 h -15 -15 z m 107,0 V 3 h 37.5 c 20.625,0 37.50895,0.3375 37.51988,0.75 0.0109,0.4125 0.67699,6.825 1.48012,14.25 0.80313,7.425 1.46919,14.5125 1.48012,15.75 L 295,36 H 273 251 V 64.5 93 h 15.5 15.5 l 0.003,2.75 c 0.003,3.188734 -1.84934,23.21426 -2.59023,28 l -0.5034,3.25 H 264.95469 251 v 35 35 h 23 23 v 17 17 h -40 -40 z"
         id="path6"
         sodipodi:nodetypes="ssscsscccsscsssssccsssssccccccccccssscccccccsssccccccssssccccccccccccccccccccc" />
      <path
         style="fill:#13283b;fill-opacity:1"
         d="M 441.5,232.65048 C 427.9262,228.1678 419.60693,219.53728 415.32867,205.5 413.62076,199.89622 413.5,194.08505 413.5,117.5 c 0,-81.777361 0.006,-82.019042 2.20691,-89.013369 C 419.5346,16.322545 427.96095,7.0831962 438.5,3.4943782 445.07372,1.2558588 462.47522,0.4390485 472,1.9219194 489.1517,4.5921924 498.65396,12.961583 502.74331,29 c 1.2685,4.975031 3.19815,51.894948 2.14105,52.06002 -0.2114,0.03301 -7.92186,0.841413 -17.13436,1.79645 L 471,84.592901 V 62.219527 39.846154 l -2.92308,-2.923077 c -2.5077,-2.507705 -3.68004,-2.919917 -8.25,-2.900841 -5.62887,0.0235 -8.64057,1.615704 -10.70988,5.662023 -1.64762,3.221745 -1.57338,152.220081 0.0777,155.843681 3.30984,7.26433 18.07073,7.16454 20.84827,-0.14094 C 470.57497,193.98771 471,179.57553 471,162.9349 V 133 h 17.1024 17.10241 l -0.45453,32.25 c -0.49653,35.23017 -1.33138,41.24038 -7.09459,51.07455 -3.52725,6.0188 -11.64009,13.11503 -17.41149,15.22968 -6.30501,2.31017 -32.79848,3.05979 -38.7442,1.09625 z M 321.25,231.31731 308,230.94195 V 116.89832 2.8546821 l 32.75,0.3524032 c 31.58167,0.3398316 32.96404,0.4362856 38.75,2.7037555 7.86595,3.0826023 14.37692,9.6636342 16.91515,17.0971512 3.93367,11.520256 3.09055,62.179728 -1.17333,70.4999 -2.31112,4.509739 -8.59389,11.151688 -11.38726,12.038268 -2.75021,0.87288 -2.26521,1.90357 1.5439,3.28096 4.77591,1.72699 10.90889,8.7793 13.70041,15.75407 2.32561,5.81065 2.36919,6.53096 2.38501,39.41881 0.0173,36.02071 -0.36186,39.57279 -5.32105,49.84508 -3.15925,6.54394 -10.55933,13.39481 -16.91863,15.66298 -5.07013,1.80836 -30.27211,2.59458 -57.9942,1.80925 z m 42.47887,-34.59059 2.77113,-2.77328 v -30.55916 -30.55915 l -3.26578,-2.91757 C 360.13968,127.15297 359.49738,127 350.98422,127 H 342 v 36.59653 36.59653 l 9.47887,-0.34653 c 8.80368,-0.32185 9.67627,-0.54408 12.25,-3.11981 z M 362.07692,92.076923 365,89.153846 V 65.5 41.846154 l -2.92308,-2.923077 C 359.30056,36.146717 358.72335,36 350.57692,36 H 342 V 65.5 95 h 8.57692 c 8.14643,0 8.72364,-0.146717 11.5,-2.923077 z"
         id="path2" />
    </g>
  </g>
</svg>
